<svg xmlns="http://www.w3.org/2000/svg" data-name="Layer 2" viewBox="0 0 179.63 179.63" id="phone"><defs><linearGradient id="a" x1="138.2" x2="29.45" y1="187.46" y2="-.91" gradientUnits="userSpaceOnUse"><stop offset="0" stop-color="#00d4fe"></stop><stop offset="1" stop-color="#ff6af7"></stop></linearGradient></defs><path fill="url(#a)" d="M179.63,141.61c0,20.94-17.06,38-38.02,38.02C63.55,179.61,.02,116.09,0,38.03,.03,17.06,17.08,0,38.03,0c2.19,0,4.33,.19,6.34,.55,4.43,.73,8.7,2.26,12.64,4.54,1.27,.73,2.14,1.99,2.37,3.44l8.08,50.95c.23,1.45-.2,2.92-1.19,4.01-4.85,5.38-10.98,9.19-17.84,11.12,10.2,25.96,30.64,46.39,56.6,56.6,1.93-6.87,5.74-13,11.12-17.85,1.09-.98,2.55-1.41,4.01-1.18l50.94,8.08c1.46,.23,2.71,1.09,3.45,2.36,2.27,3.94,3.8,8.21,4.55,12.69,.35,1.97,.53,4.1,.53,6.3Z" data-name="Layer 1"></path></svg>